<svg xmlns="http://www.w3.org/2000/svg" viewBox="0 0 300 200">
  <rect width="300" height="175" fill="#bfdbfe"/>
  <rect x="0" y="150" width="300" height="25" fill="#4ade80"/>
  <!-- Gable roof -->
  <polygon points="150,40 52,102 248,102" fill="#1c1917"/>
  <line x1="52" y1="102" x2="248" y2="102" stroke="#0f172a" stroke-width="2"/>
  <!-- Gable vent -->
  <polygon points="150,52 140,74 160,74" fill="#0f172a"/>
  <!-- Barn walls -->
  <rect x="62" y="102" width="176" height="50" fill="#7c2d12"/>
  <!-- Board lines -->
  <line x1="82" y1="102" x2="82" y2="152" stroke="#6b1e0c" stroke-width="1"/>
  <line x1="102" y1="102" x2="102" y2="152" stroke="#6b1e0c" stroke-width="1"/>
  <line x1="122" y1="102" x2="122" y2="152" stroke="#6b1e0c" stroke-width="1"/>
  <line x1="178" y1="102" x2="178" y2="152" stroke="#6b1e0c" stroke-width="1"/>
  <line x1="198" y1="102" x2="198" y2="152" stroke="#6b1e0c" stroke-width="1"/>
  <line x1="218" y1="102" x2="218" y2="152" stroke="#6b1e0c" stroke-width="1"/>
  <!-- Windows -->
  <rect x="71" y="109" width="20" height="15" fill="#7dd3fc" rx="1"/>
  <rect x="209" y="109" width="20" height="15" fill="#7dd3fc" rx="1"/>
  <!-- Barn door (double) -->
  <rect x="119" y="115" width="62" height="37" fill="#431407"/>
  <line x1="150" y1="115" x2="150" y2="152" stroke="#7c2d12" stroke-width="2"/>
  <!-- Label -->
  <rect x="0" y="175" width="300" height="25" fill="#1c1917"/>
  <text x="150" y="192" text-anchor="middle" fill="white" font-family="Arial,Helvetica,sans-serif" font-size="11" font-weight="700" letter-spacing="1.5">GABLE ROOF</text>
</svg>
