<svg viewBox="0 0 300 180" xmlns="http://www.w3.org/2000/svg">
  <rect width="300" height="180" fill="#f1f5f9"/>
  <text x="150" y="22" text-anchor="middle" font-family="sans-serif" font-size="9" fill="#94a3b8">PLAN VIEW (TOP-DOWN)</text>
  <!-- Container 1 (top) -->
  <rect x="38" y="48" width="216" height="30" fill="#64748b" stroke="#1e293b" stroke-width="2" rx="1"/>
  <line x1="62" y1="48" x2="62" y2="78" stroke="#94a3b8" stroke-width="1.5" opacity="0.5"/>
  <line x1="90" y1="48" x2="90" y2="78" stroke="#94a3b8" stroke-width="1.5" opacity="0.5"/>
  <line x1="118" y1="48" x2="118" y2="78" stroke="#94a3b8" stroke-width="1.5" opacity="0.5"/>
  <line x1="146" y1="48" x2="146" y2="78" stroke="#94a3b8" stroke-width="1.5" opacity="0.5"/>
  <line x1="174" y1="48" x2="174" y2="78" stroke="#94a3b8" stroke-width="1.5" opacity="0.5"/>
  <line x1="202" y1="48" x2="202" y2="78" stroke="#94a3b8" stroke-width="1.5" opacity="0.5"/>
  <line x1="230" y1="48" x2="230" y2="78" stroke="#94a3b8" stroke-width="1.5" opacity="0.5"/>
  <rect x="242" y="48" width="12" height="30" fill="#334155" stroke="#1e293b" stroke-width="1"/>
  <text x="141" y="68" text-anchor="middle" font-family="sans-serif" font-size="8" fill="#e2e8f0" font-weight="bold">CONTAINER 1</text>
  <!-- Gap arrow indicator -->
  <line x1="25" y1="78" x2="25" y2="100" stroke="#d97706" stroke-width="2"/>
  <polygon points="21,78 29,78 25,71" fill="#d97706"/>
  <polygon points="21,100 29,100 25,107" fill="#d97706"/>
  <!-- Container 2 (bottom) -->
  <rect x="38" y="100" width="216" height="30" fill="#475569" stroke="#1e293b" stroke-width="2" rx="1"/>
  <line x1="62" y1="100" x2="62" y2="130" stroke="#94a3b8" stroke-width="1.5" opacity="0.5"/>
  <line x1="90" y1="100" x2="90" y2="130" stroke="#94a3b8" stroke-width="1.5" opacity="0.5"/>
  <line x1="118" y1="100" x2="118" y2="130" stroke="#94a3b8" stroke-width="1.5" opacity="0.5"/>
  <line x1="146" y1="100" x2="146" y2="130" stroke="#94a3b8" stroke-width="1.5" opacity="0.5"/>
  <line x1="174" y1="100" x2="174" y2="130" stroke="#94a3b8" stroke-width="1.5" opacity="0.5"/>
  <line x1="202" y1="100" x2="202" y2="130" stroke="#94a3b8" stroke-width="1.5" opacity="0.5"/>
  <line x1="230" y1="100" x2="230" y2="130" stroke="#94a3b8" stroke-width="1.5" opacity="0.5"/>
  <rect x="242" y="100" width="12" height="30" fill="#334155" stroke="#1e293b" stroke-width="1"/>
  <text x="141" y="120" text-anchor="middle" font-family="sans-serif" font-size="8" fill="#e2e8f0" font-weight="bold">CONTAINER 2</text>
  <text x="150" y="170" text-anchor="middle" font-family="sans-serif" font-size="11" font-weight="bold" fill="#44403c">PARALLEL / SIDE-BY-SIDE</text>
</svg>
