<svg viewBox="0 0 200 150" xmlns="http://www.w3.org/2000/svg">
  <!-- Sky -->
  <rect width="200" height="150" fill="#f5f5f4"/>
  <!-- Ground -->
  <rect x="0" y="104" width="200" height="46" fill="#a07850"/>
  <!-- Grade line -->
  <line x1="0" y1="104" x2="200" y2="104" stroke="#d97706" stroke-width="2" stroke-dasharray="8,4"/>
  <!-- Gravel pad -->
  <rect x="12" y="90" width="176" height="16" fill="#c4b5a0"/>
  <circle cx="28" cy="97" r="2" fill="#8a7a6a"/>
  <circle cx="46" cy="95" r="2.5" fill="#7a6a5a"/>
  <circle cx="62" cy="97" r="2" fill="#8a7a6a"/>
  <circle cx="80" cy="96" r="2" fill="#7a6a5a"/>
  <circle cx="98" cy="97" r="2.5" fill="#8a7a6a"/>
  <circle cx="116" cy="95" r="2" fill="#7a6a5a"/>
  <circle cx="134" cy="97" r="2.5" fill="#8a7a6a"/>
  <circle cx="152" cy="96" r="2" fill="#7a6a5a"/>
  <circle cx="170" cy="97" r="2" fill="#8a7a6a"/>
  <!-- Skid 1 (pressure treated timber) -->
  <rect x="22" y="73" width="62" height="19" fill="#92400e" stroke="#78350f" stroke-width="2" rx="2"/>
  <line x1="38" y1="73" x2="38" y2="92" stroke="#78350f" stroke-width="0.7" opacity="0.5"/>
  <line x1="54" y1="73" x2="54" y2="92" stroke="#78350f" stroke-width="0.7" opacity="0.5"/>
  <line x1="70" y1="73" x2="70" y2="92" stroke="#78350f" stroke-width="0.7" opacity="0.5"/>
  <!-- Skid 2 (pressure treated timber) -->
  <rect x="116" y="73" width="62" height="19" fill="#92400e" stroke="#78350f" stroke-width="2" rx="2"/>
  <line x1="132" y1="73" x2="132" y2="92" stroke="#78350f" stroke-width="0.7" opacity="0.5"/>
  <line x1="148" y1="73" x2="148" y2="92" stroke="#78350f" stroke-width="0.7" opacity="0.5"/>
  <line x1="164" y1="73" x2="164" y2="92" stroke="#78350f" stroke-width="0.7" opacity="0.5"/>
  <!-- Floor deck on skids -->
  <rect x="12" y="54" width="176" height="20" fill="#d4b896" stroke="#78716c" stroke-width="1.5"/>
  <line x1="38" y1="54" x2="38" y2="74" stroke="#a8a29e" stroke-width="0.8"/>
  <line x1="64" y1="54" x2="64" y2="74" stroke="#a8a29e" stroke-width="0.8"/>
  <line x1="90" y1="54" x2="90" y2="74" stroke="#a8a29e" stroke-width="0.8"/>
  <line x1="116" y1="54" x2="116" y2="74" stroke="#a8a29e" stroke-width="0.8"/>
  <line x1="142" y1="54" x2="142" y2="74" stroke="#a8a29e" stroke-width="0.8"/>
  <line x1="168" y1="54" x2="168" y2="74" stroke="#a8a29e" stroke-width="0.8"/>
  <!-- Wall stubs -->
  <rect x="12" y="18" width="18" height="36" fill="#e7e5e4" stroke="#a8a29e" stroke-width="1.5"/>
  <rect x="170" y="18" width="18" height="36" fill="#e7e5e4" stroke="#a8a29e" stroke-width="1.5"/>
</svg>
