<svg viewBox="0 0 300 180" xmlns="http://www.w3.org/2000/svg">
  <rect width="300" height="180" fill="#e0f2fe"/>
  <rect y="140" width="300" height="40" fill="#d4c4a8"/>
  <rect y="137" width="300" height="6" fill="#86efac"/>
  <rect x="60" y="100" width="180" height="40" fill="#f5f5f4" stroke="#a8a29e" stroke-width="1.5"/>
  <polygon points="40,100 80,55 220,55 260,100" fill="#d97706"/>
  <polygon points="40,100 80,55 150,35" fill="#b45309"/>
  <polygon points="260,100 220,55 150,35" fill="#b45309"/>
  <line x1="80" y1="55" x2="220" y2="55" stroke="#78350f" stroke-width="2"/>
  <line x1="40" y1="100" x2="80" y2="55" stroke="#78350f" stroke-width="1.5"/>
  <line x1="260" y1="100" x2="220" y2="55" stroke="#78350f" stroke-width="1.5"/>
  <line x1="40" y1="100" x2="150" y2="35" stroke="#78350f" stroke-width="1.5"/>
  <line x1="260" y1="100" x2="150" y2="35" stroke="#78350f" stroke-width="1.5"/>
  <rect x="115" y="108" width="45" height="28" fill="#bae6fd" stroke="#94a3b8" stroke-width="1"/>
  <line x1="137" y1="108" x2="137" y2="136" stroke="#94a3b8" stroke-width="1"/>
  <text x="150" y="170" text-anchor="middle" font-family="sans-serif" font-size="11" font-weight="bold" fill="#44403c">HIP ROOF</text>
</svg>
