<svg viewBox="0 0 300 180" xmlns="http://www.w3.org/2000/svg">
  <rect width="300" height="180" fill="#e0f2fe"/>
  <rect y="140" width="300" height="40" fill="#d4c4a8"/>
  <rect y="137" width="300" height="6" fill="#86efac"/>
  <rect x="60" y="100" width="180" height="40" fill="#f5f5f4" stroke="#a8a29e" stroke-width="1.5"/>
  <polygon points="40,100 90,70 210,70 260,100" fill="#d97706"/>
  <polygon points="90,70 110,38 190,38 210,70" fill="#b45309"/>
  <line x1="40" y1="100" x2="90" y2="70" stroke="#78350f" stroke-width="1.5"/>
  <line x1="90" y1="70" x2="110" y2="38" stroke="#78350f" stroke-width="1.5"/>
  <line x1="110" y1="38" x2="190" y2="38" stroke="#78350f" stroke-width="2"/>
  <line x1="190" y1="38" x2="210" y2="70" stroke="#78350f" stroke-width="1.5"/>
  <line x1="210" y1="70" x2="260" y2="100" stroke="#78350f" stroke-width="1.5"/>
  <line x1="90" y1="70" x2="210" y2="70" stroke="#78350f" stroke-width="2"/>
  <rect x="115" y="108" width="45" height="28" fill="#bae6fd" stroke="#94a3b8" stroke-width="1"/>
  <line x1="137" y1="108" x2="137" y2="136" stroke="#94a3b8" stroke-width="1"/>
  <text x="150" y="170" text-anchor="middle" font-family="sans-serif" font-size="11" font-weight="bold" fill="#44403c">GAMBREL (BARN-STYLE)</text>
</svg>
