<svg viewBox="0 0 300 180" xmlns="http://www.w3.org/2000/svg">
  <rect width="300" height="180" fill="#e0f2fe"/>
  <rect y="140" width="300" height="40" fill="#d4c4a8"/>
  <rect y="137" width="300" height="6" fill="#86efac"/>
  <rect x="60" y="100" width="180" height="40" fill="#f5f5f4" stroke="#a8a29e" stroke-width="1.5"/>
  <polygon points="40,100 150,32 260,100" fill="#6b7280"/>
  <line x1="40" y1="100" x2="260" y2="100" stroke="#374151" stroke-width="2"/>
  <line x1="40" y1="100" x2="150" y2="32" stroke="#374151" stroke-width="1.5"/>
  <line x1="260" y1="100" x2="150" y2="32" stroke="#374151" stroke-width="1.5"/>
  <line x1="95" y1="100" x2="122" y2="66" stroke="#d97706" stroke-width="2.5"/>
  <line x1="112" y1="100" x2="136" y2="70" stroke="#d97706" stroke-width="2.5"/>
  <line x1="129" y1="100" x2="150" y2="74" stroke="#d97706" stroke-width="2.5"/>
  <line x1="150" y1="100" x2="164" y2="76" stroke="#d97706" stroke-width="2.5"/>
  <line x1="168" y1="100" x2="178" y2="70" stroke="#d97706" stroke-width="2.5"/>
  <line x1="186" y1="100" x2="192" y2="66" stroke="#d97706" stroke-width="2.5"/>
  <rect x="115" y="108" width="45" height="28" fill="#bae6fd" stroke="#94a3b8" stroke-width="1"/>
  <text x="150" y="170" text-anchor="middle" font-family="sans-serif" font-size="11" font-weight="bold" fill="#44403c">STANDING SEAM METAL</text>
</svg>
